{
    "asset" : {
        "generator" : "Khronos glTF Blender I/O v1.5.17",
        "version" : "2.0"
    },
    "scene" : 0,
    "scenes" : [
        {
            "name" : "Scene",
            "nodes" : [
                0,
                1,
                2
            ]
        }
    ],
    "nodes" : [
        {
            "name" : "Light",
            "rotation" : [
                0.16907575726509094,
                0.7558803558349609,
                -0.27217137813568115,
                0.570947527885437
            ],
            "translation" : [
                4.041680812835693,
                12.604399681091309,
                -1.4582798480987549
            ]
        },
        {
            "name" : "Camera",
            "rotation" : [
                0.483536034822464,
                0.33687159419059753,
                -0.20870360732078552,
                0.7804827094078064
            ],
            "translation" : [
                7.358891487121582,
                4.958309173583984,
                8.18486213684082
            ]
        },
        {
            "mesh" : 0,
            "name" : "Cone"
        }
    ],
    "meshes" : [
        {
            "name" : "Cone",
            "primitives" : [
                {
                    "attributes" : {
                        "POSITION" : 0,
                        "NORMAL" : 1,
                        "TEXCOORD_0" : 2
                    },
                    "indices" : 3
                }
            ]
        }
    ],
    "accessors" : [
        {
            "bufferView" : 0,
            "componentType" : 5126,
            "count" : 344,
            "max" : [
                3.5226011276245117,
                8.425533294677734,
                1.8693898916244507
            ],
            "min" : [
                -3.6800718307495117,
                -1.9073486328125e-06,
                -1.8693902492523193
            ],
            "type" : "VEC3"
        },
        {
            "bufferView" : 1,
            "componentType" : 5126,
            "count" : 344,
            "type" : "VEC3"
        },
        {
            "bufferView" : 2,
            "componentType" : 5126,
            "count" : 344,
            "type" : "VEC2"
        },
        {
            "bufferView" : 3,
            "componentType" : 5123,
            "count" : 594,
            "type" : "SCALAR"
        }
    ],
    "bufferViews" : [
        {
            "buffer" : 0,
            "byteLength" : 4128,
            "byteOffset" : 0
        },
        {
            "buffer" : 0,
            "byteLength" : 4128,
            "byteOffset" : 4128
        },
        {
            "buffer" : 0,
            "byteLength" : 2752,
            "byteOffset" : 8256
        },
        {
            "buffer" : 0,
            "byteLength" : 1188,
            "byteOffset" : 11008
        }
    ],
    "buffers" : [
        {
            "byteLength" : 12196,
            "uri" : "data:application/octet-stream;base64,"
        }
    ]
}
